# xmcd
#
# Track frame offsets:
#	150
#	16803
#	34451
#	50663
#	71276
#	93056
#	110113
#	126271
#	146169
#	166111
#	184409
#	201777
#	218259
#	245839
#	266829
#	289931
#	309731
#
# Disc length: 4369 seconds
#
# Revision: 1
# Processed by: cddbd v1.4PL0 Copyright (c) Steve Scherf et al.
# Submitted via: audiograbber 1.80
#
DISCID=05110f11
DTITLE=Backstreet Boys - Singles Collection
DYEAR=1900
DGENRE=
TTITLE0=We´ve got it goin on
TTITLE1=Quite playing games (with my heart)
TTITLE2=As long as you love me
TTITLE3=All I have to give
TTITLE4=Anywhere for you
TTITLE5=Everybody
TTITLE6=Get down
TTITLE7=Hey Mr. DJ
TTITLE8=I´ll never break your heart
TTITLE9=10000 Promises
TTITLE10=Everytime I close my eyes
TTITLE11=That´s the way I like it
TTITLE12=Nobody but you
TTITLE13=Roll with it
TTITLE14=Give me your heart
TTITLE15=I never find someone like you
TTITLE16=Get down
EXTD=
EXTT0=
EXTT1=
EXTT2=
EXTT3=
EXTT4=
EXTT5=
EXTT6=
EXTT7=
EXTT8=
EXTT9=
EXTT10=
EXTT11=
EXTT12=
EXTT13=
EXTT14=
EXTT15=
EXTT16=
PLAYORDER=
